<svg width="16" height="16" viewBox="0 0 16 16" fill="none" xmlns="http://www.w3.org/2000/svg">
<g id="icons/question">
<g id="Q.">
<path d="M8.44743 16C7.76734 16 7.20656 15.8688 6.7651 15.6063C6.32364 15.3438 5.88814 14.8963 5.45861 14.264L4.47427 12.7785C3.80611 12.6353 3.19761 12.3908 2.64877 12.0447C2.09993 11.6987 1.62864 11.2632 1.2349 10.7383C0.841163 10.2013 0.536913 9.57494 0.322148 8.85906C0.107383 8.14318 0 7.34377 0 6.46085C0 5.42282 0.149142 4.5041 0.447427 3.7047C0.745712 2.89336 1.15735 2.21924 1.68233 1.68233C2.20731 1.13348 2.82774 0.715883 3.54362 0.42953C4.25951 0.143177 5.03505 0 5.87025 0C6.70544 0 7.48098 0.143177 8.19687 0.42953C8.91275 0.715883 9.53318 1.13348 10.0582 1.68233C10.5831 2.21924 10.9948 2.89336 11.2931 3.7047C11.5913 4.5041 11.7405 5.42282 11.7405 6.46085C11.7405 7.34377 11.6331 8.13721 11.4183 8.84116C11.2036 9.54512 10.9053 10.1655 10.5235 10.7025C10.1417 11.2274 9.67636 11.6629 9.12752 12.0089C8.5906 12.355 8 12.6055 7.3557 12.7606L8.55481 14.2282C8.75764 14.4907 8.99627 14.6637 9.27069 14.7472C9.54512 14.8427 9.85533 14.8904 10.2013 14.8904H10.5056V16H8.44743ZM5.87025 11.5973C6.24012 11.5973 6.58613 11.5377 6.90828 11.4183C7.23042 11.299 7.51081 11.1141 7.74944 10.8635C8 10.613 8.19687 10.2908 8.34004 9.89709C8.48322 9.50336 8.55481 9.03207 8.55481 8.48322V4.43848C8.55481 3.88964 8.48322 3.41834 8.34004 3.02461C8.19687 2.63087 8 2.30873 7.74944 2.05817C7.51081 1.80761 7.23042 1.62267 6.90828 1.50336C6.58613 1.38404 6.24012 1.32438 5.87025 1.32438C5.50037 1.32438 5.15436 1.38404 4.83221 1.50336C4.51007 1.62267 4.22371 1.80761 3.97315 2.05817C3.73453 2.30873 3.54362 2.63087 3.40045 3.02461C3.25727 3.41834 3.18568 3.88964 3.18568 4.43848V8.48322C3.18568 9.03207 3.25727 9.50336 3.40045 9.89709C3.54362 10.2908 3.73453 10.613 3.97315 10.8635C4.22371 11.1141 4.51007 11.299 4.83221 11.4183C5.15436 11.5377 5.50037 11.5973 5.87025 11.5973Z" fill="#D6D6D6"/>
<path d="M14.3624 12.9217C13.8374 12.9217 13.4377 12.7726 13.1633 12.4743C12.8889 12.1641 12.7516 11.7942 12.7516 11.3647V11.2931C12.7516 10.8635 12.8889 10.4996 13.1633 10.2013C13.4377 9.89113 13.8374 9.73602 14.3624 9.73602C14.8874 9.73602 15.2871 9.89113 15.5615 10.2013C15.8359 10.4996 15.9731 10.8635 15.9731 11.2931V11.3647C15.9731 11.7942 15.8359 12.1641 15.5615 12.4743C15.2871 12.7726 14.8874 12.9217 14.3624 12.9217Z" fill="#D6D6D6"/>
</g>
</g>
</svg>
