<svg width="44" height="28" viewBox="0 0 44 28" fill="none" xmlns="http://www.w3.org/2000/svg">
<path id="Vector" d="M32.2791 0H11.7209C5.24745 0 0 5.0823 0 11.352C0 17.6217 5.24745 22.704 11.7209 22.704H12.5922C12.9468 22.704 13.2437 22.9888 13.2245 23.3323C13.153 24.7033 12.5648 25.8934 11.7016 26.8784C11.2426 27.4002 11.7896 28.175 12.463 27.9646C14.4174 27.3523 17.1168 26.0771 19.5027 23.4175C19.904 22.9702 20.4785 22.7066 21.0888 22.7066H32.2791C38.7525 22.7066 44 17.6243 44 11.3546C43.9972 5.0823 38.7498 0 32.2791 0Z" fill="#EEEEEE"/>
</svg>
